<mxfile host="app.diagrams.net" modified="2024-04-03T07:33:53.841Z" agent="Mozilla/5.0 (X11; Linux x86_64) AppleWebKit/537.36 (KHTML, like Gecko) Chrome/122.0.0.0 Safari/537.36" etag="mYT8HVZ6e1Lq5sswBFD4" version="24.2.1" type="device">
  <diagram name="Страница — 1" id="mmXJ8Wfq9l6qBzFzBONW">
    <mxGraphModel dx="891" dy="460" grid="1" gridSize="10" guides="1" tooltips="1" connect="1" arrows="1" fold="1" page="1" pageScale="1" pageWidth="827" pageHeight="1169" math="0" shadow="0">
      <root>
        <mxCell id="0" />
        <mxCell id="1" parent="0" />
        <mxCell id="tpvdPryFzsy_ckkim6EA-6" value="Экспорт проекта" style="ellipse;whiteSpace=wrap;html=1;" parent="1" vertex="1">
          <mxGeometry x="230" y="510" width="60" height="50" as="geometry" />
        </mxCell>
        <mxCell id="tpvdPryFzsy_ckkim6EA-11" value="" style="endArrow=none;dashed=1;html=1;dashPattern=1 3;strokeWidth=2;rounded=0;entryX=0.5;entryY=1;entryDx=0;entryDy=0;entryPerimeter=0;exitX=0.5;exitY=0;exitDx=0;exitDy=0;" parent="1" target="tpvdPryFzsy_ckkim6EA-8" edge="1">
          <mxGeometry width="50" height="50" relative="1" as="geometry">
            <mxPoint x="151.9999999999999" y="270" as="sourcePoint" />
            <mxPoint x="470" y="260" as="targetPoint" />
          </mxGeometry>
        </mxCell>
        <mxCell id="7GawQOJJzAXgXHo7L7C_-3" value="Создание анимируемых объектов" style="ellipse;whiteSpace=wrap;html=1;" vertex="1" parent="1">
          <mxGeometry x="150" y="400" width="80" height="60" as="geometry" />
        </mxCell>
        <mxCell id="7GawQOJJzAXgXHo7L7C_-5" value="" style="edgeStyle=orthogonalEdgeStyle;rounded=0;orthogonalLoop=1;jettySize=auto;html=1;dashed=1;endArrow=none;endFill=0;" edge="1" parent="1" source="7GawQOJJzAXgXHo7L7C_-4" target="7GawQOJJzAXgXHo7L7C_-3">
          <mxGeometry relative="1" as="geometry" />
        </mxCell>
        <mxCell id="7GawQOJJzAXgXHo7L7C_-4" value="- &quot;Division&quot;;&lt;div&gt;- Изображение;&lt;/div&gt;&lt;div&gt;- &quot;HTML&quot;;&lt;/div&gt;&lt;div&gt;- &quot;Head&quot;;&lt;/div&gt;&lt;div&gt;- Параграф;&lt;/div&gt;&lt;div&gt;- Кнопка;&lt;br&gt;- Поле ввода;&lt;/div&gt;&lt;div&gt;и другие&lt;/div&gt;" style="shape=note;whiteSpace=wrap;html=1;backgroundOutline=1;darkOpacity=0.05;size=10;align=left;" vertex="1" parent="1">
          <mxGeometry x="32" y="370" width="90" height="120" as="geometry" />
        </mxCell>
        <mxCell id="7GawQOJJzAXgXHo7L7C_-6" value="Создание нового проекта" style="ellipse;whiteSpace=wrap;html=1;" vertex="1" parent="1">
          <mxGeometry x="320" y="540" width="70" height="60" as="geometry" />
        </mxCell>
        <mxCell id="7GawQOJJzAXgXHo7L7C_-7" value="Импорт проекта" style="ellipse;whiteSpace=wrap;html=1;" vertex="1" parent="1">
          <mxGeometry x="413" y="520" width="57" height="46" as="geometry" />
        </mxCell>
        <mxCell id="7GawQOJJzAXgXHo7L7C_-10" value="Редактирование атрибутов анимируемых объектов" style="ellipse;whiteSpace=wrap;html=1;" vertex="1" parent="1">
          <mxGeometry x="220" y="290" width="110" height="90" as="geometry" />
        </mxCell>
        <mxCell id="7GawQOJJzAXgXHo7L7C_-11" value="Редактирование анимации" style="ellipse;whiteSpace=wrap;html=1;" vertex="1" parent="1">
          <mxGeometry x="590" y="360" width="100" height="70" as="geometry" />
        </mxCell>
        <mxCell id="7GawQOJJzAXgXHo7L7C_-13" style="rounded=0;orthogonalLoop=1;jettySize=auto;html=1;endArrow=none;endFill=0;dashed=1;" edge="1" parent="1" source="7GawQOJJzAXgXHo7L7C_-12" target="tpvdPryFzsy_ckkim6EA-6">
          <mxGeometry relative="1" as="geometry" />
        </mxCell>
        <mxCell id="7GawQOJJzAXgXHo7L7C_-12" value="&lt;div&gt;- JSON;&lt;/div&gt;&lt;div&gt;- HTML;&lt;/div&gt;&lt;div&gt;- URL;&lt;/div&gt;" style="shape=note;whiteSpace=wrap;html=1;backgroundOutline=1;darkOpacity=0.05;size=10;align=left;" vertex="1" parent="1">
          <mxGeometry x="150" y="566" width="60" height="60" as="geometry" />
        </mxCell>
        <mxCell id="7GawQOJJzAXgXHo7L7C_-15" value="&lt;div&gt;- Добавление атрибутов;&lt;/div&gt;&lt;div&gt;- Удаление атрибутов;&lt;/div&gt;&lt;div&gt;- Редактирование значений атрибутов;&lt;/div&gt;" style="shape=note;whiteSpace=wrap;html=1;backgroundOutline=1;darkOpacity=0.05;size=10;align=left;" vertex="1" parent="1">
          <mxGeometry x="120" y="170" width="100" height="110" as="geometry" />
        </mxCell>
        <mxCell id="7GawQOJJzAXgXHo7L7C_-17" value="" style="endArrow=none;dashed=1;html=1;rounded=0;" edge="1" parent="1" source="7GawQOJJzAXgXHo7L7C_-10" target="7GawQOJJzAXgXHo7L7C_-15">
          <mxGeometry width="50" height="50" relative="1" as="geometry">
            <mxPoint x="370" y="400" as="sourcePoint" />
            <mxPoint x="420" y="350" as="targetPoint" />
          </mxGeometry>
        </mxCell>
        <mxCell id="7GawQOJJzAXgXHo7L7C_-19" value="" style="endArrow=classic;html=1;rounded=0;" edge="1" parent="1">
          <mxGeometry width="50" height="50" relative="1" as="geometry">
            <mxPoint x="370" y="510" as="sourcePoint" />
            <mxPoint x="420" y="460" as="targetPoint" />
          </mxGeometry>
        </mxCell>
        <mxCell id="7GawQOJJzAXgXHo7L7C_-20" value="Редактирование стиля анимируемых объектов" style="ellipse;whiteSpace=wrap;html=1;" vertex="1" parent="1">
          <mxGeometry x="340" y="240" width="110" height="90" as="geometry" />
        </mxCell>
        <mxCell id="7GawQOJJzAXgXHo7L7C_-21" value="&lt;div&gt;- Добавление свойств стиля;&lt;/div&gt;&lt;div&gt;- Удаление свойств стиля;&lt;/div&gt;&lt;div&gt;- Редактирование&lt;/div&gt;&lt;div&gt;&lt;span style=&quot;background-color: initial;&quot;&gt;свойств стиля;&lt;/span&gt;&lt;/div&gt;" style="shape=note;whiteSpace=wrap;html=1;backgroundOutline=1;darkOpacity=0.05;size=10;align=left;" vertex="1" parent="1">
          <mxGeometry x="330" y="110" width="100" height="110" as="geometry" />
        </mxCell>
        <mxCell id="7GawQOJJzAXgXHo7L7C_-22" value="" style="endArrow=none;dashed=1;html=1;rounded=0;" edge="1" parent="1" source="7GawQOJJzAXgXHo7L7C_-20" target="7GawQOJJzAXgXHo7L7C_-21">
          <mxGeometry width="50" height="50" relative="1" as="geometry">
            <mxPoint x="370" y="270" as="sourcePoint" />
            <mxPoint x="420" y="220" as="targetPoint" />
          </mxGeometry>
        </mxCell>
        <mxCell id="7GawQOJJzAXgXHo7L7C_-24" value="" style="group" vertex="1" connectable="0" parent="1">
          <mxGeometry x="320" y="410" width="70" height="90" as="geometry" />
        </mxCell>
        <mxCell id="7GawQOJJzAXgXHo7L7C_-23" value="" style="rounded=0;whiteSpace=wrap;html=1;fillColor=none;strokeColor=none;" vertex="1" parent="7GawQOJJzAXgXHo7L7C_-24">
          <mxGeometry width="70" height="90" as="geometry" />
        </mxCell>
        <mxCell id="tpvdPryFzsy_ckkim6EA-1" value="Пользователь" style="shape=umlActor;verticalLabelPosition=bottom;verticalAlign=top;html=1;outlineConnect=0;rotatable=0;gradientColor=none;fillStyle=solid;strokeWidth=1;perimeterSpacing=1;spacingTop=0;" parent="7GawQOJJzAXgXHo7L7C_-24" vertex="1">
          <mxGeometry x="20" y="10" width="30" height="60" as="geometry" />
        </mxCell>
      </root>
    </mxGraphModel>
  </diagram>
</mxfile>
